<svg width="303" height="53" viewBox="0 0 303 53" fill="none" xmlns="http://www.w3.org/2000/svg">
<path d="M0.164062 20.1175L21.7121 20.1218L34.8147 20.124V7.13281L0.164062 20.1175Z" fill="#FF9D28"/>
<path d="M34.8203 7.13444V53L51.1852 1L34.8203 7.13444Z" fill="#68C5ED"/>
<path d="M34.8136 20.1272L21.7109 20.125L34.8136 53.0016V20.1272Z" fill="#044D80"/>
<path d="M0.164062 20.1211L25.0721 28.5611L21.7121 20.1254L0.164062 20.1211Z" fill="#E54747"/>
<path d="M84.4541 19V6.39648H88.9365C89.9561 6.39648 90.8232 6.71289 91.5381 7.3457C92.2529 7.97266 92.6104 8.72559 92.6104 9.60449C92.6104 10.249 92.417 10.832 92.0303 11.3535C91.6494 11.875 91.166 12.2031 90.5801 12.3379C91.3418 12.4375 91.9746 12.7891 92.4785 13.3926C92.9883 13.9902 93.2432 14.6904 93.2432 15.4932C93.2432 16.4775 92.877 17.3096 92.1445 17.9893C91.418 18.6631 90.5303 19 89.4814 19H84.4541ZM86.1855 11.7666H88.8838C89.4346 11.7666 89.9004 11.582 90.2812 11.2129C90.668 10.8438 90.8613 10.3926 90.8613 9.85938C90.8613 9.35547 90.668 8.93066 90.2812 8.58496C89.9004 8.2334 89.4346 8.05762 88.8838 8.05762H86.1855V11.7666ZM86.1855 17.3477H89.376C89.9795 17.3477 90.4805 17.1484 90.8789 16.75C91.2773 16.3457 91.4766 15.8477 91.4766 15.2559C91.4766 14.6816 91.2744 14.1924 90.8701 13.7881C90.4658 13.3838 89.9736 13.1816 89.3936 13.1816H86.1855V17.3477ZM103.21 14.3945C103.21 14.6465 103.198 14.8662 103.175 15.0537H96.1172C96.2168 15.8564 96.5244 16.4951 97.04 16.9697C97.5615 17.4443 98.2266 17.6816 99.0352 17.6816C99.6504 17.6816 100.181 17.5439 100.626 17.2686C101.071 16.9873 101.35 16.6152 101.461 16.1523H103.122C102.958 17.0664 102.495 17.7988 101.733 18.3496C100.972 18.9004 100.055 19.1758 98.9824 19.1758C97.7051 19.1758 96.6357 18.7363 95.7744 17.8574C94.9131 16.9727 94.4824 15.877 94.4824 14.5703C94.4824 13.7383 94.6787 12.9766 95.0713 12.2852C95.4639 11.5879 96.0029 11.04 96.6885 10.6416C97.3799 10.2373 98.1387 10.0352 98.9648 10.0352C100.154 10.0352 101.159 10.4482 101.979 11.2744C102.8 12.1006 103.21 13.1406 103.21 14.3945ZM96.1699 13.6562H101.408C101.338 13.0352 101.071 12.5283 100.608 12.1357C100.151 11.7432 99.5801 11.5469 98.8945 11.5469C98.2031 11.5469 97.6143 11.7344 97.1279 12.1094C96.6416 12.4844 96.3223 13 96.1699 13.6562ZM108.114 19.1758C107.083 19.1758 106.23 18.918 105.557 18.4023C104.889 17.8867 104.511 17.1865 104.423 16.3018H106.014C106.066 16.7354 106.277 17.084 106.646 17.3477C107.021 17.6113 107.487 17.7432 108.044 17.7432C108.589 17.7432 109.025 17.6289 109.354 17.4004C109.682 17.166 109.846 16.8643 109.846 16.4951C109.846 16.2021 109.749 15.9619 109.556 15.7744C109.362 15.5869 109.113 15.4492 108.809 15.3613C108.504 15.2676 108.164 15.1855 107.789 15.1152C107.42 15.0449 107.048 14.9629 106.673 14.8691C106.304 14.7695 105.967 14.6406 105.662 14.4824C105.357 14.3242 105.108 14.0898 104.915 13.7793C104.722 13.4629 104.625 13.0791 104.625 12.6279C104.625 11.8721 104.921 11.251 105.513 10.7646C106.104 10.2783 106.884 10.0352 107.851 10.0352C108.759 10.0352 109.538 10.2725 110.188 10.7471C110.839 11.2158 111.217 11.8604 111.322 12.6807H109.644C109.591 12.3232 109.395 12.0273 109.055 11.793C108.721 11.5586 108.305 11.4414 107.807 11.4414C107.344 11.4414 106.966 11.5381 106.673 11.7314C106.386 11.9248 106.242 12.1826 106.242 12.5049C106.242 12.7861 106.339 13.0146 106.532 13.1904C106.726 13.3604 106.975 13.4863 107.279 13.5684C107.584 13.6504 107.921 13.7236 108.29 13.7881C108.665 13.8525 109.037 13.9375 109.406 14.043C109.781 14.1426 110.121 14.2773 110.426 14.4473C110.73 14.6172 110.979 14.8721 111.173 15.2119C111.366 15.5518 111.463 15.9678 111.463 16.46C111.463 17.2393 111.144 17.8867 110.505 18.4023C109.866 18.918 109.069 19.1758 108.114 19.1758ZM117.861 11.8018H115.488V15.8535C115.488 16.9785 116.074 17.541 117.246 17.541C117.498 17.541 117.703 17.5176 117.861 17.4707V19C117.592 19.0703 117.272 19.1055 116.903 19.1055C115.954 19.1055 115.204 18.833 114.653 18.2881C114.103 17.7373 113.827 16.9375 113.827 15.8887V11.8018H112.122V10.2197H113.827V7.83789H115.488V10.2197H117.861V11.8018ZM130.869 10.2197H132.53V19H130.869V17.1982C130.541 17.8369 130.093 18.3262 129.524 18.666C128.956 19.0059 128.288 19.1758 127.521 19.1758C126.337 19.1758 125.329 18.7334 124.497 17.8486C123.671 16.958 123.258 15.877 123.258 14.6055C123.258 13.334 123.671 12.2559 124.497 11.3711C125.329 10.4805 126.337 10.0352 127.521 10.0352C128.288 10.0352 128.956 10.2051 129.524 10.5449C130.093 10.8848 130.541 11.374 130.869 12.0127V10.2197ZM127.863 17.5938C128.73 17.5938 129.448 17.3125 130.017 16.75C130.585 16.1875 130.869 15.4727 130.869 14.6055C130.869 13.7383 130.585 13.0234 130.017 12.4609C129.448 11.8984 128.73 11.6172 127.863 11.6172C127.031 11.6172 126.325 11.9072 125.745 12.4873C125.165 13.0674 124.875 13.7734 124.875 14.6055C124.875 15.4375 125.165 16.1436 125.745 16.7236C126.325 17.3037 127.031 17.5938 127.863 17.5938ZM139.834 10.0352C140.619 10.0352 141.34 10.2373 141.996 10.6416C142.652 11.0459 143.171 11.5996 143.552 12.3027C143.933 13.0059 144.123 13.7734 144.123 14.6055C144.123 15.4375 143.933 16.2051 143.552 16.9082C143.171 17.6113 142.652 18.165 141.996 18.5693C141.34 18.9736 140.619 19.1758 139.834 19.1758C139.078 19.1758 138.416 19.0088 137.848 18.6748C137.285 18.335 136.84 17.8545 136.512 17.2334V22.1816H134.833V10.2197H136.512V11.9775C136.84 11.3564 137.285 10.8789 137.848 10.5449C138.416 10.2051 139.078 10.0352 139.834 10.0352ZM139.5 17.5938C140.332 17.5938 141.035 17.3066 141.609 16.7324C142.189 16.1523 142.479 15.4434 142.479 14.6055C142.479 13.7676 142.189 13.0615 141.609 12.4873C141.035 11.9072 140.332 11.6172 139.5 11.6172C138.639 11.6172 137.924 11.9014 137.355 12.4697C136.793 13.0322 136.512 13.7441 136.512 14.6055C136.512 15.4668 136.793 16.1816 137.355 16.75C137.924 17.3125 138.639 17.5938 139.5 17.5938ZM150.943 10.0352C151.729 10.0352 152.449 10.2373 153.105 10.6416C153.762 11.0459 154.28 11.5996 154.661 12.3027C155.042 13.0059 155.232 13.7734 155.232 14.6055C155.232 15.4375 155.042 16.2051 154.661 16.9082C154.28 17.6113 153.762 18.165 153.105 18.5693C152.449 18.9736 151.729 19.1758 150.943 19.1758C150.188 19.1758 149.525 19.0088 148.957 18.6748C148.395 18.335 147.949 17.8545 147.621 17.2334V22.1816H145.942V10.2197H147.621V11.9775C147.949 11.3564 148.395 10.8789 148.957 10.5449C149.525 10.2051 150.188 10.0352 150.943 10.0352ZM150.609 17.5938C151.441 17.5938 152.145 17.3066 152.719 16.7324C153.299 16.1523 153.589 15.4434 153.589 14.6055C153.589 13.7676 153.299 13.0615 152.719 12.4873C152.145 11.9072 151.441 11.6172 150.609 11.6172C149.748 11.6172 149.033 11.9014 148.465 12.4697C147.902 13.0322 147.621 13.7441 147.621 14.6055C147.621 15.4668 147.902 16.1816 148.465 16.75C149.033 17.3125 149.748 17.5938 150.609 17.5938ZM165.595 7.67969C164.417 7.67969 163.828 8.23633 163.828 9.34961V10.2197H166.219V11.8018H163.828V19H162.176V11.8018H160.462V10.2197H162.176V9.33203C162.176 8.2832 162.451 7.48633 163.002 6.94141C163.553 6.39062 164.303 6.11523 165.252 6.11523C165.604 6.11523 165.926 6.15039 166.219 6.2207V7.75C166.037 7.70313 165.829 7.67969 165.595 7.67969ZM171.053 10.0352C171.891 10.0352 172.655 10.2373 173.347 10.6416C174.038 11.04 174.583 11.5908 174.981 12.2939C175.386 12.9971 175.588 13.7734 175.588 14.623C175.588 15.9062 175.148 16.9873 174.27 17.8662C173.396 18.7393 172.324 19.1758 171.053 19.1758C170.215 19.1758 169.447 18.9766 168.75 18.5781C168.059 18.1797 167.514 17.6318 167.115 16.9346C166.717 16.2373 166.518 15.4668 166.518 14.623C166.518 13.3281 166.954 12.2412 167.827 11.3623C168.7 10.4775 169.775 10.0352 171.053 10.0352ZM171.053 11.6172C170.227 11.6172 169.532 11.9043 168.97 12.4785C168.413 13.0527 168.135 13.7676 168.135 14.623C168.135 15.4609 168.413 16.167 168.97 16.7412C169.532 17.3096 170.227 17.5938 171.053 17.5938C171.873 17.5938 172.564 17.3066 173.127 16.7324C173.689 16.1582 173.971 15.4551 173.971 14.623C173.971 13.7676 173.689 13.0527 173.127 12.4785C172.564 11.9043 171.873 11.6172 171.053 11.6172ZM181.512 10.0527C181.793 10.0527 182.062 10.0879 182.32 10.1582V11.6963C182.01 11.5967 181.723 11.5469 181.459 11.5469C180.785 11.5469 180.223 11.7783 179.771 12.2412C179.326 12.6982 179.104 13.3018 179.104 14.0518V19H177.425V10.2197H179.104V11.4941C179.367 11.043 179.707 10.6914 180.123 10.4395C180.539 10.1816 181.002 10.0527 181.512 10.0527ZM196.321 14.3945C196.321 14.6465 196.31 14.8662 196.286 15.0537H189.229C189.328 15.8564 189.636 16.4951 190.151 16.9697C190.673 17.4443 191.338 17.6816 192.146 17.6816C192.762 17.6816 193.292 17.5439 193.737 17.2686C194.183 16.9873 194.461 16.6152 194.572 16.1523H196.233C196.069 17.0664 195.606 17.7988 194.845 18.3496C194.083 18.9004 193.166 19.1758 192.094 19.1758C190.816 19.1758 189.747 18.7363 188.886 17.8574C188.024 16.9727 187.594 15.877 187.594 14.5703C187.594 13.7383 187.79 12.9766 188.183 12.2852C188.575 11.5879 189.114 11.04 189.8 10.6416C190.491 10.2373 191.25 10.0352 192.076 10.0352C193.266 10.0352 194.271 10.4482 195.091 11.2744C195.911 12.1006 196.321 13.1406 196.321 14.3945ZM189.281 13.6562H194.52C194.449 13.0352 194.183 12.5283 193.72 12.1357C193.263 11.7432 192.691 11.5469 192.006 11.5469C191.314 11.5469 190.726 11.7344 190.239 12.1094C189.753 12.4844 189.434 13 189.281 13.6562ZM202.632 10.0352C203.763 10.0352 204.656 10.3896 205.312 11.0986C205.975 11.8076 206.306 12.7686 206.306 13.9814V19H204.645V14.1572C204.645 13.3896 204.428 12.7744 203.994 12.3115C203.561 11.8486 202.98 11.6172 202.254 11.6172C201.516 11.6172 200.927 11.8486 200.487 12.3115C200.048 12.7744 199.828 13.3896 199.828 14.1572V19H198.149V10.2197H199.828V11.749C200.109 11.2041 200.49 10.7822 200.971 10.4834C201.457 10.1846 202.011 10.0352 202.632 10.0352ZM213.012 11.8018H210.639V15.8535C210.639 16.9785 211.225 17.541 212.396 17.541C212.648 17.541 212.854 17.5176 213.012 17.4707V19C212.742 19.0703 212.423 19.1055 212.054 19.1055C211.104 19.1055 210.354 18.833 209.804 18.2881C209.253 17.7373 208.978 16.9375 208.978 15.8887V11.8018H207.272V10.2197H208.978V7.83789H210.639V10.2197H213.012V11.8018ZM218.812 10.0527C219.094 10.0527 219.363 10.0879 219.621 10.1582V11.6963C219.311 11.5967 219.023 11.5469 218.76 11.5469C218.086 11.5469 217.523 11.7783 217.072 12.2412C216.627 12.6982 216.404 13.3018 216.404 14.0518V19H214.726V10.2197H216.404V11.4941C216.668 11.043 217.008 10.6914 217.424 10.4395C217.84 10.1816 218.303 10.0527 218.812 10.0527ZM228.771 14.3945C228.771 14.6465 228.759 14.8662 228.735 15.0537H221.678C221.777 15.8564 222.085 16.4951 222.601 16.9697C223.122 17.4443 223.787 17.6816 224.596 17.6816C225.211 17.6816 225.741 17.5439 226.187 17.2686C226.632 16.9873 226.91 16.6152 227.021 16.1523H228.683C228.519 17.0664 228.056 17.7988 227.294 18.3496C226.532 18.9004 225.615 19.1758 224.543 19.1758C223.266 19.1758 222.196 18.7363 221.335 17.8574C220.474 16.9727 220.043 15.877 220.043 14.5703C220.043 13.7383 220.239 12.9766 220.632 12.2852C221.024 11.5879 221.563 11.04 222.249 10.6416C222.94 10.2373 223.699 10.0352 224.525 10.0352C225.715 10.0352 226.72 10.4482 227.54 11.2744C228.36 12.1006 228.771 13.1406 228.771 14.3945ZM221.73 13.6562H226.969C226.898 13.0352 226.632 12.5283 226.169 12.1357C225.712 11.7432 225.141 11.5469 224.455 11.5469C223.764 11.5469 223.175 11.7344 222.688 12.1094C222.202 12.4844 221.883 13 221.73 13.6562ZM235.6 10.0352C236.385 10.0352 237.105 10.2373 237.762 10.6416C238.418 11.0459 238.937 11.5996 239.317 12.3027C239.698 13.0059 239.889 13.7734 239.889 14.6055C239.889 15.4375 239.698 16.2051 239.317 16.9082C238.937 17.6113 238.418 18.165 237.762 18.5693C237.105 18.9736 236.385 19.1758 235.6 19.1758C234.844 19.1758 234.182 19.0088 233.613 18.6748C233.051 18.335 232.605 17.8545 232.277 17.2334V22.1816H230.599V10.2197H232.277V11.9775C232.605 11.3564 233.051 10.8789 233.613 10.5449C234.182 10.2051 234.844 10.0352 235.6 10.0352ZM235.266 17.5938C236.098 17.5938 236.801 17.3066 237.375 16.7324C237.955 16.1523 238.245 15.4434 238.245 14.6055C238.245 13.7676 237.955 13.0615 237.375 12.4873C236.801 11.9072 236.098 11.6172 235.266 11.6172C234.404 11.6172 233.689 11.9014 233.121 12.4697C232.559 13.0322 232.277 13.7441 232.277 14.6055C232.277 15.4668 232.559 16.1816 233.121 16.75C233.689 17.3125 234.404 17.5938 235.266 17.5938ZM245.795 10.0527C246.076 10.0527 246.346 10.0879 246.604 10.1582V11.6963C246.293 11.5967 246.006 11.5469 245.742 11.5469C245.068 11.5469 244.506 11.7783 244.055 12.2412C243.609 12.6982 243.387 13.3018 243.387 14.0518V19H241.708V10.2197H243.387V11.4941C243.65 11.043 243.99 10.6914 244.406 10.4395C244.822 10.1816 245.285 10.0527 245.795 10.0527ZM255.753 14.3945C255.753 14.6465 255.741 14.8662 255.718 15.0537H248.66C248.76 15.8564 249.067 16.4951 249.583 16.9697C250.104 17.4443 250.77 17.6816 251.578 17.6816C252.193 17.6816 252.724 17.5439 253.169 17.2686C253.614 16.9873 253.893 16.6152 254.004 16.1523H255.665C255.501 17.0664 255.038 17.7988 254.276 18.3496C253.515 18.9004 252.598 19.1758 251.525 19.1758C250.248 19.1758 249.179 18.7363 248.317 17.8574C247.456 16.9727 247.025 15.877 247.025 14.5703C247.025 13.7383 247.222 12.9766 247.614 12.2852C248.007 11.5879 248.546 11.04 249.231 10.6416C249.923 10.2373 250.682 10.0352 251.508 10.0352C252.697 10.0352 253.702 10.4482 254.522 11.2744C255.343 12.1006 255.753 13.1406 255.753 14.3945ZM248.713 13.6562H253.951C253.881 13.0352 253.614 12.5283 253.151 12.1357C252.694 11.7432 252.123 11.5469 251.438 11.5469C250.746 11.5469 250.157 11.7344 249.671 12.1094C249.185 12.4844 248.865 13 248.713 13.6562ZM262.063 10.0352C263.194 10.0352 264.088 10.3896 264.744 11.0986C265.406 11.8076 265.737 12.7686 265.737 13.9814V19H264.076V14.1572C264.076 13.3896 263.859 12.7744 263.426 12.3115C262.992 11.8486 262.412 11.6172 261.686 11.6172C260.947 11.6172 260.358 11.8486 259.919 12.3115C259.479 12.7744 259.26 13.3896 259.26 14.1572V19H257.581V10.2197H259.26V11.749C259.541 11.2041 259.922 10.7822 260.402 10.4834C260.889 10.1846 261.442 10.0352 262.063 10.0352ZM276.319 14.3945C276.319 14.6465 276.308 14.8662 276.284 15.0537H269.227C269.326 15.8564 269.634 16.4951 270.149 16.9697C270.671 17.4443 271.336 17.6816 272.145 17.6816C272.76 17.6816 273.29 17.5439 273.735 17.2686C274.181 16.9873 274.459 16.6152 274.57 16.1523H276.231C276.067 17.0664 275.604 17.7988 274.843 18.3496C274.081 18.9004 273.164 19.1758 272.092 19.1758C270.814 19.1758 269.745 18.7363 268.884 17.8574C268.022 16.9727 267.592 15.877 267.592 14.5703C267.592 13.7383 267.788 12.9766 268.181 12.2852C268.573 11.5879 269.112 11.04 269.798 10.6416C270.489 10.2373 271.248 10.0352 272.074 10.0352C273.264 10.0352 274.269 10.4482 275.089 11.2744C275.909 12.1006 276.319 13.1406 276.319 14.3945ZM269.279 13.6562H274.518C274.447 13.0352 274.181 12.5283 273.718 12.1357C273.261 11.7432 272.689 11.5469 272.004 11.5469C271.312 11.5469 270.724 11.7344 270.237 12.1094C269.751 12.4844 269.432 13 269.279 13.6562ZM284.643 10.2197H286.304V19H284.643V17.4531C284.361 18.0039 283.978 18.4287 283.491 18.7275C283.011 19.0264 282.454 19.1758 281.821 19.1758C280.696 19.1758 279.803 18.8242 279.141 18.1211C278.479 17.4121 278.147 16.457 278.147 15.2559V10.2197H279.826V15.0537C279.826 15.8213 280.04 16.4365 280.468 16.8994C280.901 17.3623 281.479 17.5938 282.199 17.5938C282.943 17.5938 283.535 17.3623 283.975 16.8994C284.42 16.4365 284.643 15.8213 284.643 15.0537V10.2197ZM292.711 10.0527C292.992 10.0527 293.262 10.0879 293.52 10.1582V11.6963C293.209 11.5967 292.922 11.5469 292.658 11.5469C291.984 11.5469 291.422 11.7783 290.971 12.2412C290.525 12.6982 290.303 13.3018 290.303 14.0518V19H288.624V10.2197H290.303V11.4941C290.566 11.043 290.906 10.6914 291.322 10.4395C291.738 10.1816 292.201 10.0527 292.711 10.0527ZM297.94 19.1758C296.909 19.1758 296.057 18.918 295.383 18.4023C294.715 17.8867 294.337 17.1865 294.249 16.3018H295.84C295.893 16.7354 296.104 17.084 296.473 17.3477C296.848 17.6113 297.313 17.7432 297.87 17.7432C298.415 17.7432 298.852 17.6289 299.18 17.4004C299.508 17.166 299.672 16.8643 299.672 16.4951C299.672 16.2021 299.575 15.9619 299.382 15.7744C299.188 15.5869 298.939 15.4492 298.635 15.3613C298.33 15.2676 297.99 15.1855 297.615 15.1152C297.246 15.0449 296.874 14.9629 296.499 14.8691C296.13 14.7695 295.793 14.6406 295.488 14.4824C295.184 14.3242 294.935 14.0898 294.741 13.7793C294.548 13.4629 294.451 13.0791 294.451 12.6279C294.451 11.8721 294.747 11.251 295.339 10.7646C295.931 10.2783 296.71 10.0352 297.677 10.0352C298.585 10.0352 299.364 10.2725 300.015 10.7471C300.665 11.2158 301.043 11.8604 301.148 12.6807H299.47C299.417 12.3232 299.221 12.0273 298.881 11.793C298.547 11.5586 298.131 11.4414 297.633 11.4414C297.17 11.4414 296.792 11.5381 296.499 11.7314C296.212 11.9248 296.068 12.1826 296.068 12.5049C296.068 12.7861 296.165 13.0146 296.358 13.1904C296.552 13.3604 296.801 13.4863 297.105 13.5684C297.41 13.6504 297.747 13.7236 298.116 13.7881C298.491 13.8525 298.863 13.9375 299.232 14.043C299.607 14.1426 299.947 14.2773 300.252 14.4473C300.557 14.6172 300.806 14.8721 300.999 15.2119C301.192 15.5518 301.289 15.9678 301.289 16.46C301.289 17.2393 300.97 17.8867 300.331 18.4023C299.692 18.918 298.896 19.1758 297.94 19.1758Z" fill="#65816D"/>
<path d="M93.4623 32.4536C93.7557 31.859 94.6036 31.859 94.8971 32.4536L97.2264 37.1733C97.3429 37.4094 97.5682 37.573 97.8287 37.6109L103.037 38.3677C103.693 38.4631 103.955 39.2694 103.481 39.7323L99.7117 43.406C99.5231 43.5898 99.4371 43.8546 99.4816 44.1141L100.371 49.3015C100.483 49.9551 99.7974 50.4534 99.2105 50.1449L94.552 47.6957C94.3189 47.5732 94.0405 47.5732 93.8074 47.6957L89.1488 50.1449C88.5619 50.4534 87.876 49.9551 87.9881 49.3015L88.8778 44.1141C88.9223 43.8546 88.8363 43.5898 88.6477 43.406L84.8788 39.7323C84.404 39.2694 84.666 38.4631 85.3222 38.3677L90.5307 37.6109C90.7912 37.573 91.0165 37.4094 91.133 37.1733L93.4623 32.4536Z" fill="#F1A246"/>
<path d="M117.462 32.4536C117.756 31.859 118.604 31.859 118.897 32.4536L121.226 37.1733C121.343 37.4094 121.568 37.573 121.829 37.6109L127.037 38.3677C127.693 38.4631 127.955 39.2694 127.481 39.7323L123.712 43.406C123.523 43.5898 123.437 43.8546 123.482 44.1141L124.371 49.3015C124.483 49.9551 123.797 50.4534 123.211 50.1449L118.552 47.6957C118.319 47.5732 118.04 47.5732 117.807 47.6957L113.149 50.1449C112.562 50.4534 111.876 49.9551 111.988 49.3015L112.878 44.1141C112.922 43.8546 112.836 43.5898 112.648 43.406L108.879 39.7323C108.404 39.2694 108.666 38.4631 109.322 38.3677L114.531 37.6109C114.791 37.573 115.016 37.4094 115.133 37.1733L117.462 32.4536Z" fill="#F1A246"/>
<path d="M141.462 32.4536C141.756 31.859 142.604 31.859 142.897 32.4536L145.226 37.1733C145.343 37.4094 145.568 37.573 145.829 37.6109L151.037 38.3677C151.693 38.4631 151.955 39.2694 151.481 39.7323L147.712 43.406C147.523 43.5898 147.437 43.8546 147.482 44.1141L148.371 49.3015C148.483 49.9551 147.797 50.4534 147.211 50.1449L142.552 47.6957C142.319 47.5732 142.04 47.5732 141.807 47.6957L137.149 50.1449C136.562 50.4534 135.876 49.9551 135.988 49.3015L136.878 44.1141C136.922 43.8546 136.836 43.5898 136.648 43.406L132.879 39.7323C132.404 39.2694 132.666 38.4631 133.322 38.3677L138.531 37.6109C138.791 37.573 139.016 37.4094 139.133 37.1733L141.462 32.4536Z" fill="#F1A246"/>
<path d="M165.462 32.4536C165.756 31.859 166.604 31.859 166.897 32.4536L169.226 37.1733C169.343 37.4094 169.568 37.573 169.829 37.6109L175.037 38.3677C175.693 38.4631 175.955 39.2694 175.481 39.7323L171.712 43.406C171.523 43.5898 171.437 43.8546 171.482 44.1141L172.371 49.3015C172.483 49.9551 171.797 50.4534 171.211 50.1449L166.552 47.6957C166.319 47.5732 166.04 47.5732 165.807 47.6957L161.149 50.1449C160.562 50.4534 159.876 49.9551 159.988 49.3015L160.878 44.1141C160.922 43.8546 160.836 43.5898 160.648 43.406L156.879 39.7323C156.404 39.2694 156.666 38.4631 157.322 38.3677L162.531 37.6109C162.791 37.573 163.016 37.4094 163.133 37.1733L165.462 32.4536Z" fill="#F1A246"/>
<g clip-path="url(#clip0_1223_108697)">
<path d="M188.462 32.4536C188.756 31.859 189.604 31.859 189.897 32.4536L191.932 36.5778C192.049 36.8139 192.274 36.9775 192.535 37.0154L197.086 37.6767C197.742 37.7721 198.004 38.5785 197.529 39.0413L194.236 42.2515C194.048 42.4353 193.962 42.7001 194.006 42.9596L194.784 47.4925C194.896 48.146 194.21 48.6444 193.623 48.3359L189.552 46.1957C189.319 46.0732 189.04 46.0732 188.807 46.1957L184.737 48.3359C184.15 48.6444 183.464 48.146 183.576 47.4925L184.353 42.9596C184.398 42.7001 184.312 42.4353 184.123 42.2515L180.83 39.0413C180.355 38.5785 180.617 37.7721 181.273 37.6767L185.825 37.0154C186.085 36.9775 186.31 36.8139 186.427 36.5778L188.462 32.4536Z" fill="#F1A246"/>
</g>
<path d="M187.94 37.5716L190.18 33.0336L192.419 37.5716C192.667 38.0733 193.146 38.4211 193.699 38.5015L198.707 39.2292L195.083 42.7615L195.712 43.406L195.083 42.7615C194.683 43.1521 194.5 43.7148 194.595 44.2663L195.45 49.254L190.971 46.8991C190.476 46.6387 189.884 46.6387 189.389 46.8991L184.909 49.254L185.765 44.2663C185.859 43.7148 185.677 43.1521 185.276 42.7615L181.652 39.2292L186.66 38.5015C187.214 38.4211 187.692 38.0733 187.94 37.5716ZM195.484 49.4537C195.484 49.4536 195.484 49.4536 195.484 49.4535L195.484 49.4537Z" stroke="#F1A246" stroke-width="1.8"/>
<path d="M226.206 45.662H224.604V41.72H222.858V45.662H218.7L223.074 37.4H221.112L216.54 46.022V47.246H222.858V50H224.604V47.246H226.206V45.662ZM228.906 50.18C229.59 50.18 230.13 49.658 230.13 48.974C230.13 48.308 229.59 47.768 228.906 47.768C228.204 47.768 227.682 48.308 227.682 48.974C227.682 49.658 228.204 50.18 228.906 50.18ZM231.004 37.4V39.056H237.322L232.066 50H233.992L239.41 38.606V37.4H231.004Z" fill="#65816D"/>
<defs>
<clipPath id="clip0_1223_108697">
<rect width="12.1" height="22" fill="white" transform="translate(179.18 31)"/>
</clipPath>
</defs>
</svg>
